<svg xmlns="http://www.w3.org/2000/svg" width="146" height="34" fill="none"><path fill="#00D9C5" d="m13.367 17.535 2.347.02-.02 2.347-2.347-.02zm33-1 2.347.02-.02 2.347-2.347-.02z"/><mask id="a" width="71.807" height="29.94" x="-.473" y="1.855" fill="#000" maskUnits="userSpaceOnUse"><path fill="#fff" d="M-.473 1.855h71.807v29.94H-.473z"/><path fill-rule="evenodd" d="m62.708 10.782-.234 2.704a1.003 1.003 0 0 0-.204-.01l-.188.01a1 1 0 0 0-.94.913l-.042.477a1 1 0 0 0 1.052 1.084l.109-.006-.258 2.977c-.119 1.376.9 2.622 2.28 2.625 1.087.002 2.177-.1 2.707-.468.804-.56.864-1.446.726-2.009-.066-.268-.393-.337-.658-.26-.459.131-1.118.226-1.45.112-.456-.157-.399-.819-.359-1.285l.162-1.867 1.339-.075a1 1 0 0 0 .94-.912l.04-.464a1 1 0 0 0-1.062-1.084l-.886.059.034-.392a2.482 2.482 0 0 0-2.495-2.696.62.62 0 0 0-.613.567Zm-9.443-1.114a.54.54 0 0 0-.535.493l-.726 8.388a2.7 2.7 0 0 0 2.702 2.932.54.54 0 0 0 .536-.493l.432-5c.249-.114.559-.22.801-.198.373.032.43.455.413.663l-.191 2.21a2.649 2.649 0 0 0 2.536 2.876.529.529 0 0 0 .549-.483l.414-4.788c.094-1.089-.225-2.84-1.923-3.144-1.05-.188-1.915.32-2.42.787l.114-1.31a2.7 2.7 0 0 0-2.702-2.933Zm-17.16.599c1.35.553 1.38 1.475 1.06 2.212-.217.498-.867.511-1.37.308-1.246-.502-2.863-.313-2.8.816.02.356.526.526 1.175.742 1.358.454 3.342 1.117 2.791 4.147-.897 4.938-7.236 3.92-8.061 2.594-.4-.641-.288-1.27-.035-1.784.247-.5.926-.531 1.435-.304a4.1 4.1 0 0 0 2.042.348c1.738-.163 1.406-1.76.655-2.138a6.127 6.127 0 0 0-.45-.186c-1.165-.45-3.581-1.383-2.948-4.026.736-3.071 4.084-3.722 6.506-2.73ZM12.388 9.67l-6.932-.057a2.729 2.729 0 0 0-2.741 2.494.546.546 0 0 0 .548.592l2.85-.02-.645 7.476a1 1 0 0 0 1 1.086l1.442-.006a1 1 0 0 0 .992-.914l.663-7.667.739-.005a2.633 2.633 0 0 0 2.604-2.407.527.527 0 0 0-.52-.572Zm29.467 6.414-.41 4.73a.636.636 0 0 1-.601.58 2.542 2.542 0 0 1-2.659-2.758l.404-4.673a.62.62 0 0 1 .56-.564 2.482 2.482 0 0 1 2.706 2.685Zm-16.7-2.952c.514.034 1.018.094 1.263.2l.011.004c.61.264 1.953.844 1.675 4.06-.335 3.873-3.989 4.585-5.297 3.452l-.274 3.168a1 1 0 0 1-.983.913l-1.129.015a1 1 0 0 1-1.01-1.085l.868-10.037a.59.59 0 0 1 .58-.539 2.354 2.354 0 0 1 2.036 1.115c.464-.81 1.325-1.327 2.26-1.266Zm-1.93 2.887c1.137.01 1.69.183 1.598 1.25-.088 1.024-1.153 1.213-1.803 1.117l.204-2.367Zm-8.02-3.328a12.396 12.396 0 0 0-2.036.091c-1.12.152-1.624 1.24-1.386 2.345a.252.252 0 0 0 .303.186c.716-.158 1.93-.217 2.592-.16.747.065.785.59.71.846-1.767-.101-5.005-.12-4.963 3.019.038 2.828 3.546 2.501 4.716 1.662.332.56 1.14.729 1.915.732.667.003 1.198-.793 1.208-1.46.017-1.143.155-2.746.25-3.84.148-1.711-.496-3.335-3.31-3.421Zm-.028 5.763.067-.777a.086.086 0 0 0-.109-.09l-1.052.282a.81.81 0 0 0-.6.775l-.001.174a.712.712 0 0 0 1.068.622c.357-.206.591-.575.627-.986ZM50.52 13.15c-1.683-.208-2.276.467-2.352.823.013-.155-2.2-1.757-4.242.104-1.761 1.606-1.64 6.285.173 7.069 1.45.627 2.904.25 3.463-.171-.007.082-.012.16-.017.235-.023.352-.04.626-.232.84-.425.476-2.19.73-3.196.178-.311-.171-.775-.189-.929.132-.422.88-.318 1.695.148 2.168.676.685 2.35.683 3.396.607 3.686-.267 3.89-3.026 4.01-4.656h.001l.025-.324.518-5.995c.043-.49-.277-.95-.766-1.01Zm-2.952 5.944.296-3.423c-.92-.236-1.57.021-1.73 1.888-.14 1.619.889 1.802 1.434 1.535Zm-7.297-6.446a1.874 1.874 0 1 0 .323-3.734 1.874 1.874 0 0 0-.323 3.734Z" clip-rule="evenodd"/></mask><path fill="#fff" fill-rule="evenodd" d="m62.708 10.782-.234 2.704a1.003 1.003 0 0 0-.204-.01l-.188.01a1 1 0 0 0-.94.913l-.042.477a1 1 0 0 0 1.052 1.084l.109-.006-.258 2.977c-.119 1.376.9 2.622 2.28 2.625 1.087.002 2.177-.1 2.707-.468.804-.56.864-1.446.726-2.009-.066-.268-.393-.337-.658-.26-.459.131-1.118.226-1.45.112-.456-.157-.399-.819-.359-1.285l.162-1.867 1.339-.075a1 1 0 0 0 .94-.912l.04-.464a1 1 0 0 0-1.062-1.084l-.886.059.034-.392a2.482 2.482 0 0 0-2.495-2.696.62.62 0 0 0-.613.567Zm-9.443-1.114a.54.54 0 0 0-.535.493l-.726 8.388a2.7 2.7 0 0 0 2.702 2.932.54.54 0 0 0 .536-.493l.432-5c.249-.114.559-.22.801-.198.373.032.43.455.413.663l-.191 2.21a2.649 2.649 0 0 0 2.536 2.876.529.529 0 0 0 .549-.483l.414-4.788c.094-1.089-.225-2.84-1.923-3.144-1.05-.188-1.915.32-2.42.787l.114-1.31a2.7 2.7 0 0 0-2.702-2.933Zm-17.16.599c1.35.553 1.38 1.475 1.06 2.212-.217.498-.867.511-1.37.308-1.246-.502-2.863-.313-2.8.816.02.356.526.526 1.175.742 1.358.454 3.342 1.117 2.791 4.147-.897 4.938-7.236 3.92-8.061 2.594-.4-.641-.288-1.27-.035-1.784.247-.5.926-.531 1.435-.304a4.1 4.1 0 0 0 2.042.348c1.738-.163 1.406-1.76.655-2.138a6.127 6.127 0 0 0-.45-.186c-1.165-.45-3.581-1.383-2.948-4.026.736-3.071 4.084-3.722 6.506-2.73ZM12.388 9.67l-6.932-.057a2.729 2.729 0 0 0-2.741 2.494.546.546 0 0 0 .548.592l2.85-.02-.645 7.476a1 1 0 0 0 1 1.086l1.442-.006a1 1 0 0 0 .992-.914l.663-7.667.739-.005a2.633 2.633 0 0 0 2.604-2.407.527.527 0 0 0-.52-.572Zm29.467 6.414-.41 4.73a.636.636 0 0 1-.601.58 2.542 2.542 0 0 1-2.659-2.758l.404-4.673a.62.62 0 0 1 .56-.564 2.482 2.482 0 0 1 2.706 2.685Zm-16.7-2.952c.514.034 1.018.094 1.263.2l.011.004c.61.264 1.953.844 1.675 4.06-.335 3.873-3.989 4.585-5.297 3.452l-.274 3.168a1 1 0 0 1-.983.913l-1.129.015a1 1 0 0 1-1.01-1.085l.868-10.037a.59.59 0 0 1 .58-.539 2.354 2.354 0 0 1 2.036 1.115c.464-.81 1.325-1.327 2.26-1.266Zm-1.93 2.887c1.137.01 1.69.183 1.598 1.25-.088 1.024-1.153 1.213-1.803 1.117l.204-2.367Zm-8.02-3.328a12.396 12.396 0 0 0-2.036.091c-1.12.152-1.624 1.24-1.386 2.345a.252.252 0 0 0 .303.186c.716-.158 1.93-.217 2.592-.16.747.065.785.59.71.846-1.767-.101-5.005-.12-4.963 3.019.038 2.828 3.546 2.501 4.716 1.662.332.56 1.14.729 1.915.732.667.003 1.198-.793 1.208-1.46.017-1.143.155-2.746.25-3.84.148-1.711-.496-3.335-3.31-3.421Zm-.028 5.763.067-.777a.086.086 0 0 0-.109-.09l-1.052.282a.81.81 0 0 0-.6.775l-.001.174a.712.712 0 0 0 1.068.622c.357-.206.591-.575.627-.986ZM50.52 13.15c-1.683-.208-2.276.467-2.352.823.013-.155-2.2-1.757-4.242.104-1.761 1.606-1.64 6.285.173 7.069 1.45.627 2.904.25 3.463-.171-.007.082-.012.16-.017.235-.023.352-.04.626-.232.84-.425.476-2.19.73-3.196.178-.311-.171-.775-.189-.929.132-.422.88-.318 1.695.148 2.168.676.685 2.35.683 3.396.607 3.686-.267 3.89-3.026 4.01-4.656h.001l.025-.324.518-5.995c.043-.49-.277-.95-.766-1.01Zm-2.952 5.944.296-3.423c-.92-.236-1.57.021-1.73 1.888-.14 1.619.889 1.802 1.434 1.535Zm-7.297-6.446a1.874 1.874 0 1 0 .323-3.734 1.874 1.874 0 0 0-.323 3.734Z" clip-rule="evenodd"/><path fill="#00D9C5" d="m62.474 13.486-.294 1.978 2.104.312.183-2.118-1.993-.172Zm.234-2.704-1.993-.172 1.993.172Zm-.438 2.694.11 1.997h.001l-.111-1.997Zm-.188.01-.111-1.996.11 1.997Zm.07 2.474-.111-1.997.11 1.997Zm.109-.006 1.992.172.199-2.297-2.303.128.112 1.997Zm-.258 2.977 1.993.172-1.993-.172Zm2.28 2.625-.003 2 .004-2Zm2.707-.468-1.144-1.641 1.144 1.64Zm.726-2.009-1.943.476 1.943-.476Zm-.658-.26.552 1.921-.552-1.922Zm-1.809-1.173 1.993.172-1.993-.172Zm.162-1.867-.111-1.997-1.732.096-.15 1.728 1.993.173Zm1.339-.075.111 1.997-.111-1.997Zm-.082-2.46-.133-1.996.133 1.996Zm-.886.059-1.993-.173-.2 2.323 2.325-.155-.132-1.995Zm.034-.392 1.992.172-1.993-.172Zm-2.495-2.696-.018-2 .018 2ZM52.73 10.16l1.992.172-1.992-.172Zm.535-.493.009 2-.009-2Zm-1.26 8.88-1.993-.172 1.992.173Zm2.701 2.933.01 2-.01-2Zm.536-.493 1.992.172-1.992-.172Zm.432-5-.834-1.818-1.058.486-.1 1.16 1.992.172Zm1.214.465-1.993-.173 1.993.172Zm-.191 2.21 1.992.173-1.992-.172Zm2.536 2.876-.077 1.998.078-1.998Zm.549-.483 1.992.172-1.992-.172Zm.414-4.788-1.993-.172 1.993.172Zm-1.923-3.144-.352 1.968.352-1.968Zm-2.42.787-1.992-.172-.446 5.162 3.799-3.523-1.36-1.467Zm.114-1.31 1.993.172-1.993-.173Zm-18.803-.123-1.834-.797 1.834.798Zm-1.06-2.211.76-1.85-.76 1.85Zm-.31 2.52.749-1.855-.749 1.855Zm-2.799.816-1.997.111 1.997-.111Zm1.175.742-.635 1.897.635-1.897Zm2.791 4.147 1.968.357-1.968-.357ZM28.9 21.086l-1.698 1.058 1.697-1.058Zm-.035-1.784 1.794.884-1.794-.884Zm1.435-.304-.813 1.827.813-1.827Zm2.042.348.187 1.991-.187-1.99Zm.655-2.138-.9 1.787.9-1.787Zm-.45-.186.72-1.865-.72 1.865Zm-2.948-4.026-1.945-.466 1.945.466ZM5.456 9.614l.017-2-.017 2Zm6.932.057-.017 2 .017-2Zm-9.125 3.03-.015-2 .015 2Zm2.85-.021 1.994.172.189-2.188-2.197.016.015 2Zm-.645 7.476 1.992.172-1.992-.172Zm1 1.086-.009-2 .01 2Zm1.442-.006.009 2-.01-2Zm1.655-8.581-.015-2-1.821.013-.157 1.815 1.993.172Zm.739-.005.014 2-.014-2Zm2.604-2.407 1.993.173-1.993-.173Zm28.538 10.572 1.992.172-1.992-.172Zm.409-4.73-1.993-.172 1.992.172Zm-1.011 5.31.098 1.998-.098-1.998Zm-2.659-2.758 1.993.172-1.993-.172Zm.404-4.673-1.992-.172 1.992.172Zm.56-.564-.186-1.991.187 1.99Zm-12.731-.068-.794 1.836.794-1.836Zm-1.264-.199-.13 1.996.13-1.996Zm1.275.204-.793 1.836.793-1.836Zm-3.622 7.512 1.31-1.512-2.965-2.567-.338 3.907 1.993.172ZM21.55 24.93l.027 2-.027-2Zm-1.129.015-.026-2 .026 2Zm-1.01-1.085 1.993.172-1.992-.172Zm.868-10.037-1.992-.172 1.992.172Zm.58-.539.027 2-.027-2Zm2.036 1.115-1.699 1.056 1.768 2.845 1.666-2.906-1.735-.995Zm.33 1.62.016-2-1.85-.014-.16 1.842 1.993.173Zm-.205 2.368-1.993-.172-.162 1.877 1.864.274.29-1.979Zm-9.85-5.604-.269-1.982.268 1.982Zm2.034-.091.062-2-.062 2Zm-3.421 2.435-1.955.422 1.955-.421Zm.303.187.429 1.953-.43-1.953Zm3.303.686-.114 1.996 1.588.09.446-1.527-1.92-.56Zm-4.964 3.019-2 .027 2-.027Zm4.716 1.662 1.721-1.018-1.112-1.881-1.775 1.274 1.166 1.625Zm1.915.732-.009 2 .009-2Zm1.208-1.46 2 .03-2-.03Zm-3.129-2.365.52 1.931-.52-1.931Zm-1.052.282.52 1.932-.52-1.932Zm-.6.775 2 .02-2-.02Zm-.001.174-2-.02 2 .02Zm1.068.622-1.002-1.73 1.002 1.73Zm33.618-5.467-1.993-.172 3.949.59-1.956-.418Zm2.352-.823.245-1.985-.245 1.985Zm-6.594.927 1.348 1.478-1.348-1.478Zm.173 7.069.794-1.836-.794 1.835Zm3.463-.171 1.993.172.387-4.474-3.584 2.705 1.204 1.597Zm-.017.235-1.995-.13-.001.013 1.996.117Zm0 0 1.996.13v-.013l-1.996-.116Zm-.232.84-1.491-1.333 1.49 1.333Zm-3.196.178-.963 1.753.963-1.753Zm-.929.132 1.804.865-1.804-.865Zm.148 2.168-1.424 1.404 1.424-1.404Zm3.396.607-.144-1.995.144 1.995Zm4.01-4.656 1.995.148v-.001l-1.994-.147Zm.001 0-1.995-.149v.002l1.995.146Zm.025-.324 1.993.172-1.993-.172Zm.518-5.995-1.992-.172 1.992.172Zm-3.422 1.511 1.992.173.146-1.688-1.64-.422-.498 1.937Zm-.296 3.423.877 1.797 1.018-.496.098-1.129-1.993-.172Zm16.899-5.437.233-2.704-3.985-.344-.234 2.703 3.986.345Zm-2.086 1.815a.992.992 0 0 1-.2-.01l.587-3.956c-.2-.03-.404-.04-.61-.028l.223 3.994Zm-.188.01.188-.01-.223-3.994-.188.01.223 3.995Zm.94-.912a1 1 0 0 1-.94.913l-.222-3.994a3 3 0 0 0-2.822 2.737l3.985.344Zm-.04.477.04-.477-3.985-.344-.04.476 3.985.345Zm-1.052-1.085a1 1 0 0 1 1.052 1.085l-3.986-.345a3 3 0 0 0 3.156 3.254l-.222-3.994Zm.108-.006-.108.006.222 3.994.109-.006-.223-3.994Zm1.847 5.146.257-2.977-3.985-.344-.257 2.977 3.985.345Zm.291.453c-.06 0-.12-.02-.184-.095a.49.49 0 0 1-.107-.357l-3.985-.345c-.208 2.4 1.58 4.792 4.27 4.797l.006-4Zm1.56-.11c.085-.059.12-.06.046-.036-.066.02-.178.048-.344.073-.336.05-.77.073-1.262.073l-.007 4c.594 0 1.249-.026 1.862-.117.554-.083 1.337-.255 1.99-.71l-2.286-3.282Zm-.074.108.001.012c0 .01-.001.008.002-.006a.248.248 0 0 1 .062-.105c.008-.009.012-.01.008-.008l2.287 3.282c1.72-1.198 1.781-3.08 1.526-4.125l-3.886.95Zm1.838 1.186a1.303 1.303 0 0 1-.784-.024 1.638 1.638 0 0 1-1.054-1.162l3.886-.95c-.233-.953-.952-1.477-1.562-1.681a2.698 2.698 0 0 0-1.593-.027l1.106 3.844Zm-2.653.082c.594.204 1.204.166 1.523.135.394-.039.793-.12 1.13-.217l-1.107-3.844a2.444 2.444 0 0 1-.415.08c-.064.007-.094.006-.09.006a1.174 1.174 0 0 1 .26.058l-1.3 3.782Zm-1.701-3.349c-.015.178-.072.712.01 1.238.082.537.422 1.675 1.691 2.111l1.3-3.783c.348.12.618.356.783.615.141.222.172.405.178.444.007.046.002.05.004-.017.002-.065.008-.139.019-.263l-3.985-.345Zm.161-1.867-.161 1.867 3.985.345.161-1.867-3.985-.345Zm3.22-1.899-1.338.075.222 3.994 1.34-.075-.223-3.994Zm-.94.912a1 1 0 0 1 .94-.912l.223 3.994a3 3 0 0 0 2.822-2.737l-3.985-.345Zm.04-.464-.04.465 3.985.344.04-.464-3.985-.345Zm1.063 1.084a1 1 0 0 1-1.063-1.084l3.985.345a3 3 0 0 0-3.188-3.252l.266 3.991Zm-.887.06.887-.06-.266-3.99-.886.058.265 3.991Zm-2.091-2.56-.034.391 3.985.345.034-.392-3.985-.344Zm-.485-.524c.285-.003.51.24.485.524l3.985.344a4.482 4.482 0 0 0-4.505-4.868l.035 4Zm1.362-1.26a1.38 1.38 0 0 1-1.362 1.26l-.035-4a2.62 2.62 0 0 0-2.588 2.395l3.985.344Zm-9.978-.622a1.46 1.46 0 0 1-1.448 1.335l-.018-4a2.54 2.54 0 0 0-2.52 2.32l3.986.345Zm-.725 8.388.725-8.388-3.985-.344-.725 8.387 3.985.345Zm.7.76a.7.7 0 0 1-.7-.76l-3.985-.345a4.7 4.7 0 0 0 4.703 5.105l-.018-4Zm-1.448 1.335a1.46 1.46 0 0 1 1.448-1.335l.018 4a2.54 2.54 0 0 0 2.52-2.32l-3.986-.345Zm.433-5-.433 5 3.985.344.433-5-3.985-.344Zm2.965-2.019c-.8-.069-1.522.243-1.807.373l1.668 3.636c.025-.012.048-.021.067-.029l.028-.01-.016.004a1.112 1.112 0 0 1-.285.01l.345-3.984Zm2.233 2.828c.029-.327.011-.84-.217-1.365-.266-.616-.908-1.367-2.016-1.463l-.344 3.985a1.603 1.603 0 0 1-1.31-.931 1.137 1.137 0 0 1-.098-.57l3.985.344Zm-.19 2.21.19-2.21-3.985-.345-.19 2.211 3.984.345Zm.62.705a.649.649 0 0 1-.62-.704l-3.986-.345a4.649 4.649 0 0 0 4.452 5.046l.155-3.997Zm-1.52 1.344a1.47 1.47 0 0 1 1.52-1.344l-.154 3.997a2.529 2.529 0 0 0 2.618-2.309l-3.985-.345Zm.413-4.788-.414 4.788 3.985.344.414-4.788-3.985-.344Zm-.282-1.004a.367.367 0 0 1 .097.03.518.518 0 0 1 .07.111c.042.092.08.224.104.393.022.167.023.334.011.47l3.985.345c.067-.777.002-1.857-.463-2.872-.504-1.1-1.496-2.127-3.1-2.414l-.704 3.938Zm-.707.286c.108-.1.244-.192.379-.245a.58.58 0 0 1 .328-.04l.704-3.938c-1.907-.341-3.381.595-4.131 1.29l2.72 2.933Zm-3.24-2.95-.113 1.311 3.985.345.114-1.311-3.986-.345Zm-.7-.76a.7.7 0 0 1 .7.76l3.986.345a4.7 4.7 0 0 0-4.704-5.105l.018 4Zm-14.275 1.608c.275-.634.51-1.594.151-2.629-.378-1.088-1.254-1.807-2.286-2.23l-1.518 3.7c.164.067.198.11.172.085a.62.62 0 0 1-.146-.241.645.645 0 0 1-.037-.273c.005-.044.012-.046-.005-.007L39 13.276Zm-3.953 1.366c.505.204 1.165.34 1.856.229.746-.119 1.65-.568 2.097-1.595L35.33 11.68a1.34 1.34 0 0 1 .467-.564c.192-.131.368-.18.475-.196.187-.03.27.01.27.011l-1.496 3.71Zm-.054-1.15c.006.102-.006.247-.065.412a1.17 1.17 0 0 1-.255.41c-.19.2-.355.226-.324.22a.906.906 0 0 1 .26-.002c.146.016.3.054.438.11l1.497-3.71c-.925-.373-2.06-.532-3.083-.299-.52.119-1.156.373-1.671.91a2.863 2.863 0 0 0-.79 2.171l3.993-.222Zm-.188-1.044a9.595 9.595 0 0 1-.389-.134c-.102-.038-.128-.053-.115-.046.004.003.147.077.304.258.186.213.364.546.388.966l-3.994.222c.07 1.269 1.035 1.875 1.395 2.07.398.217.88.37 1.142.458l1.269-3.794Zm4.125 6.401c.367-2.02-.08-3.649-1.229-4.805-.985-.993-2.295-1.395-2.896-1.596l-1.269 3.794c.758.253 1.119.41 1.327.62.065.066.116.14.152.275.04.151.078.457-.02.997l3.935.715Zm-11.727 3.295c.351.564.86.927 1.253 1.151.425.243.901.428 1.383.564a8.79 8.79 0 0 0 3.283.267c1.168-.128 2.456-.52 3.557-1.389 1.135-.895 1.944-2.198 2.251-3.888l-3.936-.715c-.141.78-.46 1.2-.792 1.462-.366.29-.883.485-1.515.554a4.793 4.793 0 0 1-1.76-.14 2.289 2.289 0 0 1-.488-.189c-.116-.066.014-.025.159.208l-3.395 2.115Zm-.13-3.727c-.442.895-.758 2.302.13 3.727l3.395-2.115.009.018a.404.404 0 0 1 .03.164c-.002.06-.017.056.023-.025l-3.587-1.769Zm4.042-1.246a3.491 3.491 0 0 0-1.942-.27c-.736.117-1.621.544-2.1 1.516l3.587 1.77c-.102.207-.26.379-.44.497-.17.111-.325.153-.423.168a.519.519 0 0 1-.309-.027l1.627-3.654Zm1.04.184a2.101 2.101 0 0 1-1.04-.184l-1.627 3.654a6.1 6.1 0 0 0 3.042.512l-.374-3.982Zm-.057 1.64a.906.906 0 0 1-.406-.374.766.766 0 0 1-.08-.435c.019-.23.13-.495.346-.687.198-.175.333-.157.198-.144l.374 3.982c.733-.068 1.479-.31 2.08-.843.62-.549.926-1.267.986-1.964.106-1.22-.54-2.524-1.698-3.108l-1.8 3.572Zm-.27-.107.223.088c.06.024.067.029.047.018l1.8-3.572c-.214-.108-.483-.209-.63-.265l-1.44 3.73Zm-4.173-6.358c-.235.98-.21 1.919.078 2.78a4.76 4.76 0 0 0 1.309 1.99c.992.918 2.248 1.38 2.785 1.588l1.442-3.731c-.628-.243-1.163-.472-1.512-.794a.785.785 0 0 1-.23-.32c-.024-.07-.064-.24.018-.581l-3.89-.932Zm9.21-4.114c-1.615-.662-3.56-.796-5.293-.2-1.81.62-3.373 2.044-3.917 4.314l3.89.932c.192-.801.67-1.239 1.324-1.463.73-.25 1.671-.213 2.478.118l1.518-3.7ZM5.44 11.614l6.931.057.033-4-6.931-.057-.033 4Zm-.732.666a.729.729 0 0 1 .732-.666l.033-4a4.729 4.729 0 0 0-4.75 4.321l3.985.345Zm-1.46-1.58a1.454 1.454 0 0 1 1.46 1.58l-3.986-.345A2.546 2.546 0 0 0 3.277 14.7l-.029-4Zm2.851-.02-2.85.02.028 4 2.851-.02-.029-4Zm1.361 9.648.647-7.476-3.986-.344-.646 7.476 3.985.344Zm-1-1.086a1 1 0 0 1 1 1.086l-3.985-.344a3 3 0 0 0 3.002 3.258l-.018-4Zm1.441-.006-1.442.006.018 4 1.442-.006-.018-4Zm-.992.913a1 1 0 0 1 .992-.913l.018 4a3 3 0 0 0 2.975-2.742L6.91 20.15Zm.663-7.666-.663 7.666 3.985.345.663-7.667-3.985-.344Zm2.717-1.833-.739.005.029 4 .74-.005-.03-4Zm.627-.579a.633.633 0 0 1-.627.579l.03 4a4.633 4.633 0 0 0 4.582-4.234l-3.985-.345Zm1.455 1.6a1.473 1.473 0 0 1-1.455-1.6l3.985.345a2.527 2.527 0 0 0-2.497-2.745l-.033 4Zm31.067 9.316.41-4.73-3.986-.344-.409 4.73 3.985.344Zm-2.496 2.406a2.635 2.635 0 0 0 2.496-2.406l-3.985-.344c.059-.68.61-1.212 1.292-1.245l.197 3.995Zm-4.75-4.928a4.542 4.542 0 0 0 4.75 4.928l-.197-3.995a.542.542 0 0 1-.567-.589l-3.985-.344Zm.405-4.673-.404 4.673 3.985.344.404-4.673-3.985-.344Zm2.366-2.383a2.62 2.62 0 0 0-2.366 2.383l3.985.345a1.38 1.38 0 0 1-1.245 1.254l-.374-3.982Zm4.884 4.848a4.482 4.482 0 0 0-4.884-4.848l.374 3.982c.3-.028.55.222.525.522l3.985.344Zm-16.636-4.76a4.194 4.194 0 0 0-1.034-.27c-.294-.043-.607-.07-.892-.09l-.262 3.992c.23.015.426.034.574.056.074.01.118.02.137.024.029.007-.02-.002-.11-.04l1.587-3.673Zm.011.004-.011-.005-1.586 3.672.01.005 1.587-3.672Zm2.875 6.068c.162-1.873-.118-3.319-.82-4.4-.72-1.106-1.69-1.51-2.055-1.668l-1.586 3.672c.246.107.252.124.287.178.051.079.305.53.188 1.874l3.986.344Zm-8.6 4.792c1.428 1.236 3.575 1.194 5.167.453 1.786-.831 3.205-2.615 3.433-5.245l-3.986-.344c-.107 1.242-.682 1.752-1.134 1.962a1.53 1.53 0 0 1-.717.149c-.215-.013-.23-.074-.144.001l-2.619 3.024Zm3.029 1.828.273-3.168-3.985-.344-.273 3.167 3.985.345Zm-2.949 2.741a3 3 0 0 0 2.949-2.741l-3.985-.345a1 1 0 0 1 .982-.913l.054 4Zm-1.129.015 1.13-.015-.055-4-1.128.016.053 4Zm-3.029-3.258a3 3 0 0 0 3.03 3.258l-.055-4a1 1 0 0 1 1.01 1.087l-3.985-.345Zm.868-10.036-.868 10.036 3.985.345.868-10.037-3.985-.344Zm2.545-2.367a2.59 2.59 0 0 0-2.545 2.367l3.985.344a1.41 1.41 0 0 1-1.386 1.29l-.054-4Zm3.761 2.06a4.355 4.355 0 0 0-3.761-2.06l.054 4a.355.355 0 0 1 .31.171l3.397-2.111Zm.692-2.207c-1.778-.116-3.324.87-4.125 2.268l3.47 1.989c.127-.222.304-.27.393-.265l.262-3.992Zm1.53 6.305c.074-.85-.065-2.093-1.227-2.862a3.296 3.296 0 0 0-1.3-.485 6.932 6.932 0 0 0-1.047-.075l-.033 4c.251.002.379.013.437.023.065.01-.07 0-.264-.127a1.295 1.295 0 0 1-.502-.645c-.065-.193-.039-.287-.048-.173l3.985.344Zm-4.086 2.924c.601.088 1.438.064 2.232-.297.907-.413 1.739-1.284 1.855-2.627l-3.985-.344a.848.848 0 0 1 .175-.422.811.811 0 0 1 .297-.248c.056-.025.076-.023.052-.02a.268.268 0 0 1-.031.001h-.014l-.58 3.957Zm-1.497-4.518-.205 2.367 3.985.345.205-2.368-3.985-.345Zm-7.795-1.083c.434-.058 1-.096 1.706-.074l.123-3.998a14.43 14.43 0 0 0-2.365.108l.536 3.964Zm.301-.059a.472.472 0 0 1-.01-.15c.003-.03.007-.024-.01.007a.42.42 0 0 1-.126.134.384.384 0 0 1-.155.068l-.536-3.964a3.57 3.57 0 0 0-2.686 1.832c-.504.913-.592 1.966-.387 2.916l3.91-.843Zm-2.082-1.346c.848-.186 1.857.302 2.082 1.346l-3.91.843c.283 1.314 1.57 1.964 2.687 1.718l-.859-3.907Zm3.194-.198c-.842-.073-2.26-.007-3.194.198l.859 3.907c.5-.11 1.509-.162 1.99-.12l.345-3.985Zm2.459 3.397a2.67 2.67 0 0 0-.213-2.012c-.487-.892-1.371-1.31-2.246-1.385l-.344 3.985a.996.996 0 0 1-.395-.14 1.413 1.413 0 0 1-.525-.543 1.33 1.33 0 0 1-.117-1.024l3.84 1.12Zm-4.884 2.433c-.006-.425.095-.564.115-.59.032-.044.12-.136.375-.23.594-.216 1.463-.227 2.36-.176l.227-3.993c-.87-.05-2.505-.12-3.961.413-.77.282-1.594.768-2.212 1.6-.63.85-.919 1.886-.904 3.03l4-.054Zm1.55.064c.012-.01-.021.016-.118.055a2.158 2.158 0 0 1-.355.105 2.337 2.337 0 0 1-.823.035c-.233-.038-.277-.101-.248-.073.063.064-.002.076-.006-.186l-4 .054c.016 1.152.403 2.183 1.171 2.955.734.736 1.647 1.07 2.442 1.198.798.13 1.6.077 2.292-.07.671-.142 1.393-.404 1.977-.823l-2.332-3.25Zm3.09.357a2.55 2.55 0 0 1-.328-.02 1.02 1.02 0 0 1-.177-.036c-.028-.009.002-.003.062.039.065.046.16.132.24.267l-3.443 2.036c.498.841 1.276 1.254 1.886 1.456.611.202 1.236.256 1.742.258l.017-4Zm-.801.51a.447.447 0 0 1 .022-.147.224.224 0 0 1 .036-.063c.013-.016.241-.302.742-.3l-.017 4c1.168.005 1.996-.678 2.443-1.258a3.71 3.71 0 0 0 .774-2.172l-4-.06Zm.257-3.982c-.092 1.07-.239 2.753-.257 3.983l4 .059c.015-1.056.146-2.58.242-3.698l-3.985-.344Zm-1.378-1.25c1.035.032 1.242.322 1.253.336.054.069.177.31.125.914l3.985.344c.096-1.107-.028-2.533-.962-3.725-.977-1.247-2.499-1.812-4.278-1.867l-.123 3.998Zm-1.892 2.815-.067.777 3.985.344.067-.776-3.985-.345Zm2.403 2.013a1.914 1.914 0 0 1-2.403-2.013l3.985.345a2.086 2.086 0 0 0-2.62-2.195l1.038 3.863Zm-1.052.283 1.052-.283-1.038-3.863-1.052.283 1.038 3.863Zm.881-1.138a1.19 1.19 0 0 1-.88 1.138l-1.039-3.863a2.81 2.81 0 0 0-2.08 2.687l4 .038Zm-.001.173.001-.173-4-.038-.001.174 4 .037Zm-1.934-1.127c.864-.5 1.943.13 1.934 1.127l-4-.037c-.02 2.1 2.252 3.424 4.07 2.372l-2.004-3.462Zm-.364.573a.735.735 0 0 1 .364-.573l2.003 3.462a3.265 3.265 0 0 0 1.618-2.545l-3.985-.344Zm36.94-3.89a1.28 1.28 0 0 1-.262.56.721.721 0 0 1-.214.18c-.08.041.064-.067.627.003l.49-3.97c-2.14-.264-4.158.54-4.553 2.39l3.911.836Zm-4.85 1.163c.26-.237.468-.317.61-.348.153-.034.314-.029.482.01.173.04.319.11.4.159.044.026.037.027-.007-.011a1.423 1.423 0 0 1-.172-.182 1.966 1.966 0 0 1-.412-1.382l3.985.345a2.035 2.035 0 0 0-.217-1.102 2.154 2.154 0 0 0-.24-.37 2.591 2.591 0 0 0-.316-.325 3.99 3.99 0 0 0-.557-.4 5.443 5.443 0 0 0-1.56-.628c-1.33-.31-3.102-.17-4.69 1.278l2.694 2.956Zm-.381 3.755c.21.09.148.183.013-.142-.122-.294-.22-.748-.234-1.299a4.935 4.935 0 0 1 .195-1.533c.143-.466.317-.699.407-.781L42.579 12.6c-.79.72-1.263 1.675-1.535 2.562a8.929 8.929 0 0 0-.371 2.809c.023.917.185 1.88.54 2.735.342.822.975 1.793 2.093 2.276l1.587-3.671Zm1.465.068c.061-.046.058-.03-.04.006a1.682 1.682 0 0 1-.374.082 2.078 2.078 0 0 1-1.051-.156l-1.587 3.671a6.078 6.078 0 0 0 3.08.46c.867-.096 1.741-.387 2.381-.87l-2.41-3.193Zm3.183 1.962.014-.193-3.985-.345a7.21 7.21 0 0 0-.02.277l3.991.261Zm0-.013-3.992-.234 3.993.234Zm-.738 2.057c.736-.822.726-1.866.738-2.043l-3.991-.26c-.007.095-.01.141-.014.178-.003.034-.003.021.005-.016.01-.04.03-.12.078-.22a1.29 1.29 0 0 1 .203-.306l2.981 2.667Zm-5.65.597c.984.54 2.125.608 2.953.536a5.64 5.64 0 0 0 1.314-.268c.359-.122.936-.365 1.383-.865l-2.981-2.667a1.19 1.19 0 0 1 .288-.241c.04-.023.051-.023.02-.013a2.138 2.138 0 0 1-.857.059c-.148-.022-.204-.053-.193-.047l-1.926 3.506Zm1.839-.756a1.542 1.542 0 0 1-1.236.878 1.04 1.04 0 0 1-.602-.122l1.926-3.506a2.964 2.964 0 0 0-1.65-.359c-.636.052-1.567.382-2.045 1.378l3.607 1.73Zm-.23-.1c.06.06.101.126.127.185a.41.41 0 0 1 .033.118c.003.035-.012-.034.07-.203l-3.607-1.73c-.667 1.39-.706 3.186.527 4.437l2.85-2.808Zm1.826.015a8.044 8.044 0 0 1-1.456-.009 2.256 2.256 0 0 1-.46-.094c-.094-.033-.025-.028.09.087l-2.85 2.808c.846.86 2.038 1.087 2.746 1.171.816.097 1.64.069 2.22.027l-.29-3.99Zm2.16-2.808c-.065.88-.142 1.522-.412 1.998-.16.281-.493.72-1.748.81l.29 3.99c2.43-.176 4.041-1.251 4.935-2.823.784-1.379.869-2.93.924-3.68l-3.989-.296Zm0 0 3.99.294v-.001l-3.99-.293Zm.028-.35-.028.348 3.99.296c.008-.116.015-.212.023-.3l-3.985-.344Zm.518-5.994-.518 5.994 3.985.345.518-5.994-3.985-.345Zm.981 1.147a1.09 1.09 0 0 1-.981-1.147l3.985.345c.12-1.396-.798-2.956-2.514-3.168l-.49 3.97Zm-4.404.364-.296 3.423 3.986.345.295-3.423-3.985-.345Zm2.255 2.233c.032-.37.08-.56.106-.634.025-.072-.003.056-.179.214a1.145 1.145 0 0 1-.618.281c-.135.014-.18-.013-.069.015l.995-3.874c-.656-.168-1.922-.352-2.986.607-.902.813-1.147 2.034-1.234 3.046l3.985.345Zm-1.435-.435a.973.973 0 0 1 .461-.102c.165.005.379.054.585.198a.99.99 0 0 1 .37.458c.034.097.001.083.019-.12l-3.985-.344c-.104 1.2.19 2.507 1.309 3.287 1.02.712 2.21.601 2.995.217l-1.754-3.594Zm-6.384-6.527a.126.126 0 0 1 .136-.114l-.344 3.985a3.874 3.874 0 0 0 4.193-3.526l-3.985-.345Zm.114.137a.126.126 0 0 1-.114-.137l3.985.345a3.874 3.874 0 0 0-3.526-4.193l-.345 3.985Zm.137-.115a.126.126 0 0 1-.137.115l.345-3.985a3.874 3.874 0 0 0-4.193 3.525l3.985.345Zm-.115-.136c.07.006.12.067.115.136l-3.985-.345a3.874 3.874 0 0 0 3.526 4.194l.344-3.985Z" mask="url(#a)"/><path fill="#1A1C1E" fill-rule="evenodd" d="m137.493 18.907 2.237-.01c.299-.001.439-.09.526-.202.13-.166.148-.854.148-.854l2.138-.067.245 1.33c.059.881-.277 1.39-1.053 1.393l-3.76.074-.31 2.723-2.349.01.202-1.778c.072-.63-.302-.943-1.123-.94l-4.251.02.19-1.668 3.58-.015.977-.727c-.295.016-.615.021-.945.022-.927 0-1.38-1.2-.692-1.821l.967-.871 3.212-.06-1.88 1.285 1.411-.064 1.158-.838.47-.002c.966-.004 1.376 1.229.599 1.804l-1.697 1.256Zm-4.516-4.036-.089.778-2.349.01.114-1 .069-.605a1 1 0 0 1 .986-.886l4.765-.034.083-.725-5.42-.03.19-1.666 5.426-.024.082-.723 2.35-.01-.083.723 5.37-.024-.19 1.667-5.37.024-.088.778 4.185.033a1 1 0 0 1 .986 1.113l-.154 1.35-2.605-.065.044-.389c.03-.26-.161-.388-.571-.386l-7.731.091Zm8.674 6.12.34 2.13-2.637.058-.256-2.115 2.553-.074Zm-9.89.219 2.39-.009-.73 2.04-2.392.026.732-2.057Zm-12.513.8.004-.024.487-4.28.989-.337.247-2.167-.983.282.254-2.223.951-.005.209-1.834-.951.005.158-1.39-2.182.01-.158 1.389-1.51.007-.209 1.834 1.515-.051-.34 2.99-1.617.451-.247 2.168 1.617-.452s-.111 1.405-.22 2.36c-.066.584-.415 1.03-1.001.993l-.034-.003a3.866 3.866 0 0 0-.244-.01l-.19 1.667 2.287-.008c1-.132 1.065-.614 1.168-1.371Zm-12.971-3.91-.608 5.335-2.238.01.58-5.396-2.265.07.196-1.722 2.293-.01.045-.695-2.368-.017.197-1.723 1.379-.042-.55-1.35-.559.002.196-1.723 2.294-.01.082-.723 2.405-.01-.082.722 2.237-.01-.196 1.724-.615.002-.981 1.36 1.438.027-.197 1.723-2.405.01-.082.723 2.293-.01-.196 1.723-2.293.01Zm.408.503a1.6 1.6 0 0 1 1.624 1.78l-.34 2.977-1.789.008.505-4.765Zm-4.822-.04.839-.003c.559-.003.809.255.75.774l-.396 3.97-1.734.008.541-4.749Zm4.655-6.02-1.398.007.513 1.386.885-1.392Zm3.304-.535a2 2 0 0 1 1.982-1.773l4.259-.01-.095.833c-.084.741-.462 1.113-1.133 1.116l-1.964.009a1.001 1.001 0 0 0-.99.886l-.07.618 2.393.05c.982.113 1.334.608 1.214 1.656l-.912 8.003-2.237.01.798-7.002c.101-.556-.129-.833-.688-.83l-.783.003-.893 7.836-2.182.01 1.301-11.415Zm-15.89.917c.297-.712.641-1.534.212-2.157-.192-.28-.51-.445-.952-.5l-4.867.022-.215 1.89 3.916-.017-1.212 2.782-.453-1.539-2.237.01 1.123 4.98-2.528 5.01a85.516 85.516 0 0 0 2.512-.076l1.048-2.216.853 2.329 2.349-.01-1.872-5.158 2.273-5.232.05-.118Zm.045 1.493 1.835-.161.706 4.107-1.376.959a3 3 0 0 0-1.267 2.122l-.131 1.153 3.236-1.902.69 2.774 2.405-.01-.855-4.274.484-.342a3.002 3.002 0 0 0 1.249-2.11l.171-1.5-2.44 1.788-.466-2.776 1.733-.007c.453-.002.811-.152 1.073-.45.435-.495.391-1.224.33-1.88l-.084-.898-2.182.01.128 1.332-1.119.005-.194-2.22-2.405.01.194 2.22-1 .142-.715 1.908Zm-8.651 3.55 1.247-2.115c.654-1.133.217-1.901-.897-1.94l-3.524.015-.209 1.834 2.423.049-1.278 2.168-1.51.006-.209 1.834 1.51-.006-.202 1.778c-.017.148-.137.223-.361.224l-.783.003-.196 1.723 1.957-.008c.933-.004 1.452-.47 1.557-1.396l.266-2.334 1.23-.005.21-1.834-1.231.005Zm-.85-6.772.164-.945-2.182.01-.169 1.486c-.023.852.37 1.327 1.419 1.285l3.244-.014.21-1.834-2.686.012ZM77.82 23.5l.972-7.059.615-.003-.81 7.114 2.023-.093.857-7.52c.113-.99-.219-1.23-1.028-1.336l-1.386-.052.178-1.556 2.573-.011.215-1.89-1.343.006.102-.89-2.35.011-.1.89-1.567.006-.215 1.89.727-.003-1.42 10.505 1.957-.009Zm-1.712-11.616a1.236 1.236 0 1 1-2.456-.28 1.236 1.236 0 0 1 2.456.28Zm52.643 5.182-7.487.211-.206 1.808 1.135-.042 1.736 1.852-3.592 2.337 3.466.146s.606-.449 1.444-1.075l1.039 1.109 2.975.09-2.559-2.29c1.048-.789 2.14-1.62 2.818-2.158.615-.49.241-2.122-.769-1.988Zm-3.422 2.919-1.136-1.016 2.861-.107-1.725 1.123ZM75.68 15.628a1.591 1.591 0 0 0-1.79-1.758l-1.096 9.626 1.998-.07.888-7.798Z" clip-rule="evenodd"/><path fill="#1A1C1E" fill-rule="evenodd" d="M128.029 13.298a2.317 2.317 0 1 1-4.605-.525 2.317 2.317 0 0 1 4.605.525Zm-1.253 3.294a3.707 3.707 0 1 0-2.222-.039l.192 1.206 2.257.257-.227-1.424Zm.515-3.58a1.037 1.037 0 1 1-2.061-.235 1.037 1.037 0 0 1 2.061.236Z" clip-rule="evenodd"/></svg>